# xmcd
# 
# Track frame offsets:
#     150
#     50033
#     92765
#     130353
# 
# Disc length: 2642
# 
# Revision: 4
# Processed by: cddbd v1.5.2PL0 Copyright (c) Steve Scherf et al.
# Submitted via: fre:ac v1.0.17
# 
DISCID=340a5004
DTITLE=John Coltrane  - Tenor Conclave
DYEAR=1956
DGENRE=Jazz
TTITLE0=Tenor Conclave
TTITLE1=Just You, Just Me
TTITLE2=Bob's Boys
TTITLE3=How Deep Is The Ocean
EXTD=
EXTT0=
EXTT1=
EXTT2=
EXTT3=
PLAYORDER=
